<svg width="48" height="48" viewBox="0 0 48 48" fill="none" xmlns="http://www.w3.org/2000/svg">
<g clip-path="url(#clip0_139_68)">
<path d="M26.1061 30.2828L23.2335 33.3319C22.0907 34.5449 20.5128 35.2542 18.847 35.3039C17.1812 35.3535 15.5639 34.7394 14.3509 33.5966C13.1379 32.4538 12.4285 30.8759 12.3789 29.2101C12.3292 27.5443 12.9434 25.927 14.0862 24.7139L16.9588 21.6648M21.2678 17.0912L24.1404 14.0421C25.2832 12.8291 26.8611 12.1197 28.5269 12.0701C30.1927 12.0205 31.81 12.6346 33.023 13.7774C34.2361 14.9202 34.9454 16.4981 34.995 18.1639C35.0447 19.8297 34.4305 21.447 33.2877 22.66L30.4151 25.7091M19.5257 28.1039L27.938 19.1748" stroke="black" stroke-width="2" stroke-linecap="round" stroke-linejoin="round"/>
</g>
<defs>
<clipPath id="clip0_139_68">
<rect width="33.5133" height="33.5133" fill="white" transform="translate(0 24.3928) rotate(-46.7068)"/>
</clipPath>
</defs>
</svg>
