<svg width="36" height="36" viewBox="0 0 36 36" fill="none" xmlns="http://www.w3.org/2000/svg">
<path d="M17.5104 0.489601C7.84059 0.489601 0 8.53344 0 18.4456C0 26.38 5.0186 33.1027 11.9759 35.4791C12.0734 35.5003 12.173 35.5108 12.2729 35.5104C12.9217 35.5104 13.1719 35.0335 13.1719 34.6192C13.1719 34.1893 13.1562 33.0636 13.1484 31.5627C12.5692 31.6985 11.9767 31.7693 11.3818 31.7738C8.01257 31.7738 7.24649 29.155 7.24649 29.155C6.44914 27.0835 5.30002 26.5285 5.30002 26.5285C3.77568 25.4575 5.2922 25.4263 5.40946 25.4263H5.41728C7.17613 25.5826 8.09856 27.2867 8.09856 27.2867C8.97408 28.8189 10.1466 29.2489 11.1941 29.2489C11.8868 29.235 12.5687 29.0752 13.1953 28.7798C13.3517 27.6229 13.8051 26.8334 14.3054 26.38C10.4202 25.9266 6.33188 24.3866 6.33188 17.5075C6.33188 15.5454 7.01197 13.9429 8.12982 12.6922C7.95003 12.2388 7.34811 10.4095 8.3018 7.93933C8.42973 7.90872 8.56121 7.89558 8.69266 7.90025C9.32585 7.90025 10.7564 8.14258 13.1172 9.78418C15.9857 8.9816 19.0195 8.9816 21.888 9.78418C24.2488 8.14258 25.6793 7.90025 26.3125 7.90025C26.4439 7.89558 26.5754 7.90872 26.7033 7.93933C27.657 10.4095 27.0551 12.2388 26.8753 12.6922C27.9932 13.9507 28.6733 15.5532 28.6733 17.5075C28.6733 24.4022 24.5771 25.9188 20.6763 26.3643C21.3017 26.9193 21.8645 28.0137 21.8645 29.6866C21.8645 32.0865 21.8411 34.0251 21.8411 34.6114C21.8411 35.0335 22.0834 35.5104 22.7322 35.5104C22.8373 35.5108 22.9421 35.5004 23.0449 35.4791C30.01 33.1027 35.0208 26.3721 35.0208 18.4456C35.0208 8.53344 27.1802 0.489601 17.5104 0.489601Z" fill="white"/>
</svg>
