<svg width="38" height="38" viewBox="0 0 38 38" fill="none" xmlns="http://www.w3.org/2000/svg">
<path d="M25.2653 5.14559C27.0526 5.15107 28.7652 5.8827 30.029 7.18068C31.2929 8.47867 32.0052 10.2375 32.0106 12.0732V25.9268C32.0052 27.7625 31.2929 29.5213 30.029 30.8193C28.7652 32.1173 27.0526 32.8489 25.2653 32.8544H11.7762C9.98888 32.8489 8.2763 32.1173 7.01247 30.8193C5.74864 29.5213 5.03627 27.7625 5.03093 25.9268V12.0732C5.03627 10.2375 5.74864 8.47867 7.01247 7.18068C8.2763 5.8827 9.98888 5.15107 11.7762 5.14559H25.2653ZM25.2653 2.375H11.7762C6.58247 2.375 2.33325 6.73906 2.33325 12.0732V25.9268C2.33325 31.2609 6.58247 35.625 11.7762 35.625H25.2653C30.459 35.625 34.7083 31.2609 34.7083 25.9268V12.0732C34.7083 6.73906 30.459 2.375 25.2653 2.375Z" fill="white"/>
<path d="M27.2887 12.0732C26.8885 12.0732 26.4973 11.9513 26.1646 11.7229C25.8318 11.4946 25.5725 11.17 25.4193 10.7903C25.2662 10.4106 25.2261 9.99274 25.3042 9.58962C25.3823 9.1865 25.575 8.81622 25.858 8.52559C26.1409 8.23495 26.5015 8.03703 26.894 7.95685C27.2865 7.87666 27.6933 7.91782 28.0631 8.0751C28.4328 8.23239 28.7488 8.49875 28.9712 8.8405C29.1935 9.18224 29.3122 9.58403 29.3122 9.99504C29.3127 10.2681 29.2608 10.5386 29.1593 10.791C29.0578 11.0434 28.9088 11.2727 28.7208 11.4658C28.5328 11.6589 28.3095 11.8119 28.0638 11.9162C27.818 12.0204 27.5546 12.0738 27.2887 12.0732ZM18.5208 13.4581C19.588 13.4581 20.6313 13.7831 21.5187 14.3921C22.406 15.001 23.0977 15.8666 23.5061 16.8792C23.9145 17.8919 24.0214 19.0061 23.8131 20.0812C23.6049 21.1562 23.091 22.1437 22.3364 22.9187C21.5817 23.6938 20.6202 24.2216 19.5735 24.4354C18.5267 24.6493 17.4418 24.5395 16.4558 24.1201C15.4698 23.7006 14.627 22.9903 14.0341 22.0789C13.4412 21.1676 13.1247 20.0961 13.1247 19C13.1262 17.5307 13.6952 16.122 14.7068 15.083C15.7185 14.044 17.0901 13.4597 18.5208 13.4581ZM18.5208 10.6875C16.92 10.6875 15.3551 11.175 14.0241 12.0884C12.6931 13.0018 11.6557 14.3 11.0431 15.8189C10.4305 17.3379 10.2702 19.0092 10.5825 20.6217C10.8948 22.2342 11.6657 23.7153 12.7976 24.8778C13.9295 26.0403 15.3717 26.832 16.9417 27.1528C18.5118 27.4735 20.1392 27.3089 21.6181 26.6798C23.097 26.0506 24.3611 24.9852 25.2505 23.6182C26.1398 22.2512 26.6145 20.6441 26.6145 19C26.6145 16.7954 25.7618 14.6811 24.2439 13.1222C22.726 11.5633 20.6674 10.6875 18.5208 10.6875Z" fill="white"/>
</svg>
