<svg width="43" height="42" viewBox="0 0 43 42" fill="none" xmlns="http://www.w3.org/2000/svg">
<path d="M36.8257 12.6697L22.5055 5.59453C22.0434 5.36785 21.5355 5.24999 21.0208 5.24999C20.506 5.24999 19.9981 5.36785 19.536 5.59453L5.21579 12.6697C4.4447 13.0438 3.79462 13.6277 3.34006 14.3542C2.88551 15.0808 2.64488 15.9208 2.64575 16.7779V31.9216C2.64575 34.4548 4.73099 36.5154 7.29447 36.5154H34.747C37.3105 36.5154 39.3958 34.4548 39.3958 31.9216V16.7779C39.3966 15.9208 39.156 15.0808 38.7014 14.3542C38.2469 13.6277 37.5968 13.0438 36.8257 12.6697ZM20.7238 7.94227C20.8162 7.89693 20.9178 7.87336 21.0208 7.87336C21.1237 7.87336 21.2253 7.89693 21.3177 7.94227L35.2122 14.805L21.1028 21.7777C21.0104 21.823 20.9088 21.8466 20.8058 21.8466C20.7029 21.8466 20.6013 21.823 20.5089 21.7777L6.61197 14.9141L20.7238 7.94227Z" fill="white"/>
</svg>
