<svg width="36" height="36" viewBox="0 0 36 36" fill="none" xmlns="http://www.w3.org/2000/svg">
<path d="M30.384 2.6875H4.82508C3.4285 2.6875 2.20828 3.69238 2.20828 5.07256V30.6882C2.20828 32.0759 3.4285 33.3125 4.82508 33.3125H30.3764C31.7805 33.3125 32.8333 32.0677 32.8333 30.6882V5.07256C32.8415 3.69238 31.7805 2.6875 30.384 2.6875ZM11.7013 28.2149H7.31404V14.5738H11.7013V28.2149ZM9.65945 12.4998H9.62801C8.22391 12.4998 7.31473 11.4546 7.31473 10.1462C7.31473 8.81387 8.24783 7.79326 9.68338 7.79326C11.1189 7.79326 11.9973 8.80635 12.0288 10.1462C12.0281 11.4546 11.1189 12.4998 9.65945 12.4998ZM27.7357 28.2149H23.3484V20.7563C23.3484 18.9693 22.7099 17.7484 21.1226 17.7484C19.9099 17.7484 19.1922 18.5688 18.8729 19.3679C18.7533 19.655 18.7212 20.046 18.7212 20.4452V28.2149H14.3339V14.5738H18.7212V16.4722C19.3596 15.563 20.357 14.2546 22.6778 14.2546C25.5578 14.2546 27.7364 16.1529 27.7364 20.2456L27.7357 28.2149Z" fill="white"/>
</svg>
